<svg id="Calque_1" data-name="Calque 1" xmlns="http://www.w3.org/2000/svg" xmlns:xlink="http://www.w3.org/1999/xlink" viewBox="0 0 1940 1250.864">
  <defs>
    <clipPath id="clip-path">
      <rect x="-26.392" y="9.783" width="1962.144" height="1254.576" style="fill: none"/>
    </clipPath>
  </defs>
  <g style="clip-path: url(#clip-path)">
    <g>
      <path d="M12.293,11.35H37.277v4.219H16.84V26.022H35.73v3.984H16.84V41.678H37.629v4.1H12.293Z" style="fill: #181716"/>
      <path d="M42.821,20.678h4.008v3.563A11.226,11.226,0,0,1,50.6,21.077a10.058,10.058,0,0,1,4.43-.961q5.343,0,7.218,3.726a13.227,13.227,0,0,1,1.032,5.836v16.1H58.993V29.959a8.57,8.57,0,0,0-.68-3.7,4.12,4.12,0,0,0-4.078-2.343,8.313,8.313,0,0,0-2.461.3,6.344,6.344,0,0,0-3.047,2.063,6.208,6.208,0,0,0-1.371,2.566,17.279,17.279,0,0,0-.316,3.785V45.78H42.821Z" style="fill: #181716"/>
      <path d="M105.23,11.35v4.1h-11.6V45.78H88.917V15.452h-11.6v-4.1Z" style="fill: #181716"/>
      <path d="M111.325,11.35l6.49,27.972L125.6,11.35h5.041l7.8,28.025L144.93,11.35h5.113L141,45.78h-4.9l-7.946-28.547L120.16,45.78h-4.9l-9-34.43Z" style="fill: #181716"/>
      <path d="M153.3,11.233h4.219V24.077a12.156,12.156,0,0,1,2.695-2.672,9.09,9.09,0,0,1,5.086-1.336q5.46,0,7.406,3.82a13.029,13.029,0,0,1,1.055,5.789v16.1h-4.336V29.959a8.856,8.856,0,0,0-.7-4.054q-1.149-2.062-4.313-2.063a7.186,7.186,0,0,0-4.758,1.8q-2.133,1.8-2.132,6.82V45.78H153.3Z" style="fill: #181716"/>
    </g>
  </g>
  <line x1="86.999" y1="791.664" x2="1912.503" y2="791.664" style="fill: none;stroke: #cfd0d0;stroke-linejoin: round;stroke-width: 2.40000009536743px;stroke-dasharray: 17.104000091552734,6.383999824523926"/>
  <line x1="86.999" y1="901.924" x2="1912.503" y2="901.924" style="fill: none;stroke: #cfd0d0;stroke-linejoin: round;stroke-width: 2.40000009536743px;stroke-dasharray: 17.104000091552734,6.383999824523926"/>
  <line x1="86.999" y1="681.404" x2="1912.503" y2="681.404" style="fill: none;stroke: #cfd0d0;stroke-linejoin: round;stroke-width: 2.40000009536743px;stroke-dasharray: 17.104000091552734,6.383999824523926"/>
  <line x1="86.999" y1="571.143" x2="1912.503" y2="571.143" style="fill: none;stroke: #cfd0d0;stroke-linejoin: round;stroke-width: 2.40000009536743px;stroke-dasharray: 17.104000091552734,6.383999824523926"/>
  <line x1="86.999" y1="130.102" x2="1912.503" y2="130.102" style="fill: none;stroke: #cfd0d0;stroke-linejoin: round;stroke-width: 2.40000009536743px;stroke-dasharray: 17.104000091552734,6.383999824523926"/>
  <line x1="86.999" y1="350.623" x2="1912.503" y2="350.623" style="fill: none;stroke: #cfd0d0;stroke-linejoin: round;stroke-width: 2.40000009536743px;stroke-dasharray: 17.104000091552734,6.383999824523926"/>
  <line x1="86.999" y1="460.883" x2="1912.503" y2="460.883" style="fill: none;stroke: #cfd0d0;stroke-linejoin: round;stroke-width: 2.40000009536743px;stroke-dasharray: 17.104000091552734,6.383999824523926"/>
  <line x1="86.999" y1="240.362" x2="1912.503" y2="240.362" style="fill: none;stroke: #cfd0d0;stroke-linejoin: round;stroke-width: 2.40000009536743px;stroke-dasharray: 17.104000091552734,6.383999824523926"/>
  <g>
    <path d="M23.863,140.389h-3.4V120.073H13.1v-2.72c3.88,0,7.4-1.04,8.159-5.319h2.6Z" style="fill: #181716"/>
    <path d="M48.022,119.273a4.543,4.543,0,0,0-4.759-4.24c-5.8,0-6.719,6.4-6.879,10.759l.08.08a7.689,7.689,0,0,1,7.079-3.72c5.439,0,8.678,3.959,8.678,9.2,0,4.119-2.319,9.518-9.478,9.518-8.4,0-9.759-7.679-9.759-13.638,0-7.8,2.36-15.2,10.439-15.2,4.679,0,7.6,2.639,8,7.239Zm-11,12.278c0,3.519,2.16,6.319,5.879,6.319,3.68,0,5.719-2.92,5.719-6.279,0-3.52-1.84-6.439-5.719-6.439C39.1,125.152,37.024,127.991,37.024,131.551Z" style="fill: #181716"/>
  </g>
  <g>
    <path d="M23.863,251.35h-3.4V231.034H13.1v-2.72c3.88,0,7.4-1.04,8.159-5.319h2.6Z" style="fill: #181716"/>
    <path d="M48.222,241.712h3.84v3h-3.84v6.639h-3.2v-6.639H32.584v-3.279L45.5,223h2.72Zm-3.2,0V227.834h-.08L35.5,241.712Z" style="fill: #181716"/>
  </g>
  <g>
    <path d="M23.863,362.311h-3.4V342H13.1v-2.72c3.88,0,7.4-1.04,8.159-5.319h2.6Z" style="fill: #181716"/>
    <path d="M33.225,343.994c-.28-5.759,3.119-10.038,9.118-10.038,4.959,0,8.879,2.879,8.879,8.158,0,5-3.36,7.519-6.879,9.719-3.56,2.16-7.279,3.959-7.959,7.479H50.941v3H32.425c.559-6.719,3.959-9.119,7.958-11.6,4.8-2.96,7.239-4.719,7.239-8.639a5.166,5.166,0,0,0-5.479-5.119c-3.959,0-5.639,3.64-5.519,7.039Z" style="fill: #181716"/>
  </g>
  <g>
    <path d="M23.863,473.272h-3.4V452.956H13.1v-2.72c3.88,0,7.4-1.04,8.159-5.319h2.6Z" style="fill: #181716"/>
    <path d="M42.583,444.917c8.878,0,9.438,8.158,9.438,14.437,0,6.239-.56,14.4-9.438,14.4s-9.438-8.159-9.438-14.4C33.145,453.075,33.705,444.917,42.583,444.917Zm0,25.835c5.8,0,5.839-7.2,5.839-11.438,0-4.2-.04-11.4-5.839-11.4s-5.839,7.2-5.839,11.4C36.744,463.554,36.784,470.752,42.583,470.752Z" style="fill: #181716"/>
  </g>
  <path d="M42.34,555.877c6.2,0,8.6,3.64,8.6,7.24A6.565,6.565,0,0,1,47.019,569c3.4,1.079,5.04,3.559,5.04,7.078,0,5.479-4.16,8.639-9.4,8.639-5.439,0-9.639-2.839-9.639-8.639A7.155,7.155,0,0,1,37.981,569a6.41,6.41,0,0,1-3.96-5.879C34.021,558.437,37.981,555.877,42.34,555.877Zm.32,25.836a5.477,5.477,0,0,0,5.8-5.519,5.585,5.585,0,0,0-5.839-5.4c-3.359,0-6,2.16-6,5.439C36.621,579.634,39.141,581.713,42.66,581.713Zm0-13.917a4.355,4.355,0,0,0,4.679-4.56c0-2.839-2-4.359-4.759-4.359-2.72,0-4.959,1.52-4.959,4.359C37.621,566.356,39.86,567.8,42.66,567.8Z" style="fill: #181716"/>
  <path d="M47.979,674.07a4.542,4.542,0,0,0-4.759-4.239c-5.8,0-6.719,6.4-6.879,10.757l.08.08a7.691,7.691,0,0,1,7.079-3.719c5.439,0,8.678,3.96,8.678,9.2,0,4.119-2.319,9.518-9.478,9.518-8.4,0-9.759-7.679-9.759-13.638,0-7.8,2.36-15.2,10.439-15.2,4.679,0,7.6,2.639,8,7.239Zm-11,12.277c0,3.52,2.16,6.32,5.879,6.32,3.68,0,5.719-2.92,5.719-6.28,0-3.519-1.84-6.438-5.719-6.438C39.061,679.949,36.981,682.789,36.981,686.347Z" style="fill: #181716"/>
  <path d="M48.179,796.508h3.84v3h-3.84v6.639h-3.2v-6.639H32.542v-3.279l12.917-18.437h2.72Zm-3.2,0V782.631H44.9l-9.438,13.877Z" style="fill: #181716"/>
  <path d="M33.182,898.791c-.28-5.759,3.119-10.039,9.118-10.039,4.959,0,8.879,2.88,8.879,8.16,0,5-3.36,7.518-6.879,9.717-3.56,2.161-7.279,3.96-7.959,7.48H50.9v3H32.382c.559-6.719,3.959-9.118,7.958-11.6,4.8-2.96,7.239-4.719,7.239-8.638a5.166,5.166,0,0,0-5.479-5.12c-3.959,0-5.639,3.639-5.519,7.039Z" style="fill: #181716"/>
  <path d="M42.54,999.713c8.878,0,9.439,8.159,9.439,14.437,0,6.24-.561,14.4-9.439,14.4s-9.438-8.158-9.438-14.4C33.1,1007.872,33.662,999.713,42.54,999.713Zm0,25.836c5.8,0,5.839-7.2,5.839-11.439,0-4.2-.04-11.4-5.839-11.4s-5.839,7.2-5.839,11.4C36.7,1018.35,36.741,1025.549,42.54,1025.549Z" style="fill: #181716"/>
  <line x1="204.173" y1="1012.07" x2="204.173" y2="1025.342" style="fill: none;stroke: #181716;stroke-linejoin: round;stroke-width: 2.40000009536743px"/>
  <line x1="692.222" y1="1012.07" x2="692.222" y2="1025.342" style="fill: none;stroke: #181716;stroke-linejoin: round;stroke-width: 2.40000009536743px"/>
  <line x1="1180.271" y1="1012.07" x2="1180.271" y2="1025.342" style="fill: none;stroke: #181716;stroke-linejoin: round;stroke-width: 2.40000009536743px"/>
  <line x1="448.198" y1="1012.07" x2="448.198" y2="1025.342" style="fill: none;stroke: #181716;stroke-linejoin: round;stroke-width: 2.40000009536743px"/>
  <line x1="936.247" y1="1012.07" x2="936.247" y2="1025.342" style="fill: none;stroke: #181716;stroke-linejoin: round;stroke-width: 2.40000009536743px"/>
  <line x1="1424.296" y1="1012.07" x2="1424.296" y2="1025.342" style="fill: none;stroke: #181716;stroke-linejoin: round;stroke-width: 2.40000009536743px"/>
  <line x1="1668.321" y1="1012.07" x2="1668.321" y2="1025.342" style="fill: none;stroke: #181716;stroke-linejoin: round;stroke-width: 2.40000009536743px"/>
  <line x1="1790.333" y1="1012.07" x2="1790.333" y2="1025.342" style="fill: none;stroke: #181716;stroke-linejoin: round;stroke-width: 2.40000009536743px"/>
  <line x1="326.185" y1="1012.07" x2="326.185" y2="1025.342" style="fill: none;stroke: #181716;stroke-linejoin: round;stroke-width: 2.40000009536743px"/>
  <line x1="814.235" y1="1012.07" x2="814.235" y2="1025.342" style="fill: none;stroke: #181716;stroke-linejoin: round;stroke-width: 2.40000009536743px"/>
  <line x1="1302.283" y1="1012.07" x2="1302.283" y2="1025.342" style="fill: none;stroke: #181716;stroke-linejoin: round;stroke-width: 2.40000009536743px"/>
  <line x1="570.21" y1="1012.07" x2="570.21" y2="1025.342" style="fill: none;stroke: #181716;stroke-linejoin: round;stroke-width: 2.40000009536743px"/>
  <line x1="1058.259" y1="1012.07" x2="1058.259" y2="1025.342" style="fill: none;stroke: #181716;stroke-linejoin: round;stroke-width: 2.40000009536743px"/>
  <line x1="1546.308" y1="1012.07" x2="1546.308" y2="1025.342" style="fill: none;stroke: #181716;stroke-linejoin: round;stroke-width: 2.40000009536743px"/>
  <line x1="1912.345" y1="1012.07" x2="1912.345" y2="1025.342" style="fill: none;stroke: #181716;stroke-linejoin: round;stroke-width: 2.40000009536743px"/>
  <line x1="82.28" y1="901.759" x2="71.592" y2="901.759" style="fill: none;stroke: #181716;stroke-linejoin: round;stroke-width: 2.40000009536743px"/>
  <line x1="81.624" y1="791.334" x2="70.936" y2="791.334" style="fill: none;stroke: #181716;stroke-linejoin: round;stroke-width: 2.40000009536743px"/>
  <line x1="81.624" y1="680.91" x2="70.936" y2="680.91" style="fill: none;stroke: #181716;stroke-linejoin: round;stroke-width: 2.40000009536743px"/>
  <line x1="81.624" y1="570.485" x2="70.936" y2="570.485" style="fill: none;stroke: #181716;stroke-linejoin: round;stroke-width: 2.40000009536743px"/>
  <line x1="81.624" y1="349.635" x2="70.936" y2="349.635" style="fill: none;stroke: #181716;stroke-linejoin: round;stroke-width: 2.40000009536743px"/>
  <line x1="81.624" y1="460.06" x2="70.936" y2="460.06" style="fill: none;stroke: #181716;stroke-linejoin: round;stroke-width: 2.40000009536743px"/>
  <line x1="81.624" y1="239.21" x2="70.936" y2="239.21" style="fill: none;stroke: #181716;stroke-linejoin: round;stroke-width: 2.40000009536743px"/>
  <line x1="81.624" y1="128.785" x2="70.936" y2="128.785" style="fill: none;stroke: #181716;stroke-linejoin: round;stroke-width: 2.40000009536743px"/>
  <g>
    <path d="M27.969,1119.571c-4.592-3.487-5.685-8.842-1.829-13.437,3.188-3.8,7.913-4.95,11.958-1.557,3.829,3.213,3.6,7.4,3.023,11.516-.634,4.115-1.646,8.121.613,10.9l9.358-11.151,2.3,1.927-11.9,14.185c-4.786-4.748-4.439-8.895-3.768-13.552.818-5.578,1.037-8.579-1.965-11.1a5.163,5.163,0,0,0-7.442.906c-2.546,3.033-.838,6.659,1.843,8.752Z" style="fill: #181716"/>
    <path d="M40.59,1088.913c5.707-6.8,12.318-1.985,17.127,2.05,4.78,4.011,10.669,9.683,4.962,16.484s-12.316,1.987-17.1-2.023C40.774,1101.388,34.883,1095.715,40.59,1088.913Zm19.792,16.607c3.727-4.442-1.762-9.1-5.01-11.826-3.217-2.7-8.756-7.3-12.483-2.852s1.76,9.1,4.977,11.8C51.114,1105.365,56.654,1109.963,60.382,1105.52Z" style="fill: #181716"/>
    <path d="M54.885,1071.876c5.707-6.8,12.318-1.985,17.128,2.05,4.779,4.011,10.668,9.683,4.961,16.485s-12.316,1.986-17.1-2.024C55.069,1084.352,49.178,1078.678,54.885,1071.876Zm19.792,16.607c3.728-4.442-1.761-9.1-5.009-11.826-3.217-2.7-8.756-7.295-12.484-2.852s1.76,9.1,4.977,11.8C65.409,1088.328,70.95,1092.926,74.677,1088.483Z" style="fill: #181716"/>
    <path d="M76.783,1051.193l-7.353,8.763,5.273,6.408.113-.01A7.172,7.172,0,0,1,76.647,1061c3.239-3.86,8.369-4.934,13.332-.769,3.676,3.085,5.095,8.61.854,13.665-3.162,3.768-8.03,4.9-12.029,1.706L80.989,1073c2.366,1.725,5.567,1.33,7.752-1.273,2.083-2.483,2.172-6.01-1.29-8.915a6.144,6.144,0,0,0-9.047.762,6.812,6.812,0,0,0-1.341,5.767l-2,2.134-9.578-11.483,9-10.722Z" style="fill: #181716"/>
  </g>
  <g>
    <path d="M150.457,1119.585c-4.592-3.487-5.685-8.842-1.828-13.438,3.187-3.8,7.913-4.95,11.957-1.556,3.829,3.213,3.6,7.406,3.022,11.515-.633,4.116-1.645,8.122.614,10.906l9.358-11.153,2.3,1.928-11.9,14.185c-4.787-4.747-4.44-8.894-3.769-13.552.817-5.578,1.038-8.578-1.964-11.1a5.167,5.167,0,0,0-7.444.907c-2.545,3.033-.838,6.659,1.844,8.751Z" style="fill: #181716"/>
    <path d="M163.079,1088.927c5.707-6.8,12.317-1.986,17.126,2.05,4.779,4.01,10.67,9.683,4.962,16.485s-12.316,1.985-17.1-2.024C163.262,1101.4,157.372,1095.729,163.079,1088.927Zm19.791,16.607c3.727-4.442-1.762-9.1-5.01-11.826-3.216-2.7-8.756-7.3-12.484-2.853s1.761,9.1,4.978,11.8C173.6,1105.379,179.142,1109.977,182.87,1105.534Z" style="fill: #181716"/>
    <path d="M177.374,1071.89c5.707-6.8,12.317-1.986,17.126,2.05,4.78,4.01,10.67,9.683,4.963,16.485s-12.317,1.986-17.1-2.025C177.557,1084.365,171.667,1078.691,177.374,1071.89Zm19.791,16.607c3.728-4.442-1.761-9.1-5.009-11.825-3.217-2.7-8.757-7.3-12.484-2.854s1.761,9.1,4.977,11.8C187.9,1088.343,193.438,1092.939,197.165,1088.5Z" style="fill: #181716"/>
    <path d="M200.711,1055.34a4.542,4.542,0,0,0-6.307.921c-3.727,4.442.583,9.26,3.82,12.184l.113-.009a7.687,7.687,0,0,1,1.7-7.814c3.5-4.167,8.611-4.1,12.625-.735,3.155,2.647,5.8,7.894,1.2,13.379-5.4,6.433-12.155,2.539-16.719-1.291-5.974-5.013-10.125-11.577-4.933-17.765,3.008-3.585,6.906-4.124,10.687-1.474Zm2.335,16.316c2.7,2.263,6.229,2.408,8.621-.441,2.364-2.819,1.439-6.258-1.134-8.417-2.7-2.263-6.115-2.73-8.609.242C199.482,1065.951,200.321,1069.369,203.046,1071.656Z" style="fill: #181716"/>
  </g>
  <g>
    <path d="M272.934,1119.6c-4.591-3.488-5.684-8.842-1.828-13.438,3.187-3.8,7.913-4.95,11.957-1.557,3.83,3.213,3.6,7.407,3.022,11.516-.632,4.115-1.645,8.121.614,10.9l9.358-11.151,2.3,1.928-11.9,14.184c-4.787-4.747-4.44-8.893-3.769-13.55.817-5.581,1.038-8.58-1.964-11.1a5.166,5.166,0,0,0-7.444.907c-2.545,3.033-.837,6.658,1.844,8.752Z" style="fill: #181716"/>
    <path d="M285.556,1088.941c5.707-6.8,12.317-1.985,17.126,2.05,4.779,4.011,10.67,9.684,4.963,16.486s-12.317,1.986-17.1-2.025C285.739,1101.416,279.849,1095.743,285.556,1088.941Zm19.791,16.608c3.727-4.443-1.762-9.1-5.009-11.825-3.217-2.7-8.757-7.3-12.484-2.854s1.761,9.1,4.978,11.8C296.079,1105.394,301.619,1109.991,305.347,1105.549Z" style="fill: #181716"/>
    <path d="M299.851,1071.9c5.707-6.8,12.317-1.985,17.127,2.05,4.779,4.011,10.669,9.685,4.962,16.485s-12.317,1.987-17.1-2.024C300.034,1084.38,294.144,1078.706,299.851,1071.9Zm19.791,16.608c3.728-4.443-1.761-9.1-5.008-11.825-3.217-2.7-8.758-7.3-12.485-2.854s1.761,9.1,4.978,11.8C310.374,1088.357,315.915,1092.954,319.642,1088.512Z" style="fill: #181716"/>
    <path d="M322.688,1049.976c.676,8.032,5.659,18.269,12.126,24.375l-2.442,2.91c-6.942-6.66-10.695-15.813-11.705-24.44l-9.563,11.4-2.451-2.057,11.8-14.062Z" style="fill: #181716"/>
  </g>
  <g>
    <path d="M395.42,1119.622c-4.591-3.487-5.685-8.843-1.828-13.437,3.187-3.8,7.913-4.951,11.957-1.558,3.83,3.214,3.6,7.407,3.022,11.517-.633,4.115-1.644,8.121.615,10.9l9.357-11.152,2.3,1.928-11.9,14.185c-4.787-4.747-4.439-8.894-3.768-13.552.817-5.579,1.037-8.578-1.965-11.1a5.167,5.167,0,0,0-7.444.907c-2.545,3.033-.837,6.659,1.844,8.752Z" style="fill: #181716"/>
    <path d="M408.042,1088.964c5.706-6.8,12.316-1.985,17.126,2.05,4.78,4.01,10.669,9.683,4.962,16.485s-12.316,1.986-17.1-2.024C408.225,1101.438,402.334,1095.765,408.042,1088.964Zm19.791,16.607c3.728-4.442-1.762-9.1-5.009-11.826-3.217-2.7-8.757-7.295-12.485-2.852s1.762,9.1,4.978,11.8C418.564,1105.416,424.106,1110.014,427.833,1105.571Z" style="fill: #181716"/>
    <path d="M422.337,1071.927c5.707-6.8,12.317-1.986,17.126,2.05,4.781,4.01,10.67,9.683,4.963,16.485s-12.316,1.986-17.1-2.024C422.52,1084.4,416.63,1078.729,422.337,1071.927Zm19.792,16.607c3.727-4.442-1.762-9.1-5.009-11.825-3.217-2.7-8.758-7.3-12.485-2.854s1.761,9.1,4.978,11.8C432.86,1088.379,438.4,1092.977,442.129,1088.534Z" style="fill: #181716"/>
    <path d="M436.5,1055.043c3.984-4.748,8.315-4.247,11.073-1.934a6.566,6.566,0,0,1,1.984,6.783c3.013-1.911,5.966-1.573,8.663.689,4.2,3.522,3.942,8.739.574,12.752-3.5,4.167-8.37,5.56-12.811,1.831a7.157,7.157,0,0,1-2.237-8.349,6.4,6.4,0,0,1-7.047-.746C433.118,1063.062,433.7,1058.383,436.5,1055.043Zm9.335,7.416a4.355,4.355,0,0,0-.484-6.515c-2.176-1.825-4.626-1.27-6.4.844-1.748,2.083-2.023,4.775.152,6.6C441.5,1065.4,444.04,1064.6,445.839,1062.459Zm10.662,8.946a5.477,5.477,0,0,0-.5-7.99,5.585,5.585,0,0,0-7.889,1c-2.159,2.573-2.2,5.983.31,8.092C451.026,1074.694,454.239,1074.1,456.5,1071.405Z" style="fill: #181716"/>
  </g>
  <g>
    <path d="M517.908,1119.631c-4.592-3.487-5.685-8.843-1.829-13.439,3.188-3.8,7.913-4.95,11.958-1.556,3.829,3.214,3.6,7.406,3.023,11.516-.634,4.116-1.646,8.121.614,10.9l9.357-11.153,2.3,1.928-11.9,14.186c-4.786-4.748-4.439-8.895-3.768-13.552.818-5.579,1.037-8.579-1.965-11.1a5.165,5.165,0,0,0-7.442.906c-2.546,3.034-.838,6.66,1.843,8.752Z" style="fill: #181716"/>
    <path d="M530.529,1088.972c5.707-6.8,12.318-1.986,17.127,2.05,4.78,4.011,10.669,9.684,4.962,16.485s-12.316,1.986-17.1-2.025C530.713,1101.447,524.822,1095.773,530.529,1088.972Zm19.792,16.607c3.727-4.442-1.761-9.1-5.009-11.825-3.217-2.7-8.757-7.295-12.484-2.854s1.76,9.1,4.977,11.8C541.053,1105.425,546.593,1110.021,550.321,1105.579Z" style="fill: #181716"/>
    <path d="M544.824,1071.936c5.707-6.8,12.318-1.987,17.128,2.049,4.779,4.011,10.668,9.684,4.961,16.486s-12.316,1.986-17.1-2.026C545.008,1084.41,539.117,1078.736,544.824,1071.936Zm19.792,16.607c3.728-4.442-1.761-9.1-5.009-11.826-3.217-2.7-8.756-7.3-12.484-2.853s1.761,9.1,4.978,11.8C555.349,1088.388,560.889,1092.985,564.616,1088.543Z" style="fill: #181716"/>
    <path d="M571.9,1073.141c2.269,1.589,4.9.877,6.651-1.206,2.674-3.187,1.2-7.089-4.281-11.946l-.113.01a7.434,7.434,0,0,1-1.215,7.544c-3.7,4.411-8.729,4.368-13.019.769-4.2-3.521-4.609-8.879-1.087-13.077,3.393-4.044,8.423-5.619,16.633,1.271,7.507,6.3,9.8,12.087,5.379,17.356-3.059,3.646-7.113,4.682-11.133,1.883Zm-10.868-15.854c-2.6,3.094-1.092,6.34,1.573,8.576a5.809,5.809,0,0,0,8.2-.432c2.288-2.727,1.521-6.294-1.052-8.453C567.083,1054.741,563.475,1054.376,561.033,1057.287Z" style="fill: #181716"/>
  </g>
  <g>
    <path d="M640.394,1119.647c-4.592-3.487-5.685-8.842-1.829-13.438,3.188-3.8,7.914-4.95,11.957-1.557,3.83,3.214,3.6,7.408,3.023,11.517-.633,4.115-1.646,8.121.614,10.9l9.357-11.151,2.3,1.928-11.9,14.184c-4.788-4.748-4.441-8.894-3.769-13.552.817-5.579,1.038-8.579-1.964-11.1a5.166,5.166,0,0,0-7.444.907c-2.545,3.033-.838,6.659,1.844,8.752Z" style="fill: #181716"/>
    <path d="M653.015,1088.989c5.707-6.8,12.317-1.986,17.127,2.05,4.779,4.011,10.669,9.684,4.962,16.484s-12.317,1.987-17.1-2.023C653.2,1101.464,647.308,1095.79,653.015,1088.989Zm19.791,16.607c3.728-4.443-1.761-9.1-5.009-11.825-3.217-2.7-8.756-7.3-12.484-2.854s1.76,9.1,4.977,11.8C663.538,1105.441,669.079,1110.038,672.806,1105.6Z" style="fill: #181716"/>
    <path d="M691.038,1087.789l-2.185,2.6-15.564-13.059-4.73,5.637-2.084-1.748c2.493-2.972,3.959-6.336,1.17-9.669l1.671-1.992Z" style="fill: #181716"/>
    <path d="M681.606,1054.915c5.707-6.8,12.317-1.985,17.126,2.05,4.78,4.012,10.67,9.683,4.963,16.485s-12.317,1.987-17.1-2.024C681.789,1067.391,675.9,1061.717,681.606,1054.915Zm19.791,16.607c3.728-4.442-1.761-9.1-5.009-11.826-3.217-2.7-8.756-7.295-12.484-2.852s1.761,9.1,4.977,11.8C692.129,1071.367,697.67,1075.965,701.4,1071.522Z" style="fill: #181716"/>
  </g>
  <g>
    <path d="M762.879,1119.664c-4.591-3.487-5.684-8.842-1.828-13.437,3.187-3.8,7.913-4.951,11.957-1.557,3.83,3.213,3.6,7.406,3.022,11.516-.632,4.115-1.645,8.121.615,10.9L786,1115.938l2.3,1.928-11.9,14.185c-4.788-4.748-4.44-8.894-3.769-13.551.817-5.58,1.038-8.58-1.964-11.1a5.167,5.167,0,0,0-7.444.907c-2.545,3.033-.838,6.659,1.844,8.752Z" style="fill: #181716"/>
    <path d="M775.5,1089.006c5.708-6.8,12.317-1.986,17.127,2.05,4.779,4.01,10.669,9.683,4.962,16.484s-12.317,1.987-17.1-2.023C775.684,1101.48,769.793,1095.807,775.5,1089.006Zm19.792,16.606c3.727-4.442-1.762-9.1-5.009-11.825-3.217-2.7-8.757-7.3-12.485-2.853s1.762,9.1,4.978,11.8C786.023,1105.458,791.564,1110.055,795.292,1105.612Z" style="fill: #181716"/>
    <path d="M813.523,1087.806l-2.185,2.6-15.564-13.059-4.73,5.637-2.083-1.748c2.494-2.971,3.959-6.337,1.169-9.67l1.671-1.991Z" style="fill: #181716"/>
    <path d="M827.818,1070.769l-2.185,2.6-15.563-13.059-4.73,5.637-2.083-1.748c2.493-2.972,3.959-6.336,1.169-9.669l1.671-1.992Z" style="fill: #181716"/>
  </g>
  <g>
    <path d="M885.364,1119.681c-4.591-3.488-5.684-8.842-1.828-13.438,3.188-3.8,7.913-4.95,11.957-1.556,3.83,3.212,3.6,7.406,3.023,11.515-.633,4.116-1.644,8.122.615,10.9l9.357-11.151,2.3,1.928-11.9,14.184c-4.786-4.747-4.439-8.893-3.768-13.55.818-5.579,1.037-8.58-1.965-11.1a5.165,5.165,0,0,0-7.443.906c-2.545,3.033-.837,6.659,1.843,8.753Z" style="fill: #181716"/>
    <path d="M897.986,1089.022c5.707-6.8,12.317-1.985,17.126,2.05,4.781,4.011,10.67,9.684,4.963,16.486s-12.316,1.986-17.1-2.025C898.169,1101.5,892.279,1095.824,897.986,1089.022Zm19.792,16.608c3.727-4.442-1.762-9.1-5.009-11.826-3.217-2.7-8.758-7.3-12.485-2.853s1.761,9.1,4.978,11.8C908.509,1105.475,914.05,1110.072,917.778,1105.63Z" style="fill: #181716"/>
    <path d="M936.008,1087.822l-2.185,2.605-15.563-13.06-4.731,5.638-2.083-1.748c2.494-2.972,3.96-6.337,1.17-9.669l1.671-1.992Z" style="fill: #181716"/>
    <path d="M928.251,1068.57c-4.591-3.487-5.685-8.841-1.828-13.437,3.187-3.8,7.913-4.95,11.957-1.557,3.83,3.213,3.6,7.406,3.022,11.516-.632,4.115-1.644,8.122.615,10.9l9.358-11.151,2.3,1.927-11.9,14.185c-4.787-4.748-4.439-8.894-3.768-13.551.817-5.579,1.037-8.58-1.965-11.1a5.166,5.166,0,0,0-7.444.906c-2.545,3.033-.837,6.659,1.844,8.753Z" style="fill: #181716"/>
  </g>
  <g>
    <path d="M1007.856,1119.7c-4.591-3.487-5.684-8.843-1.828-13.438,3.188-3.8,7.913-4.951,11.957-1.557,3.829,3.214,3.6,7.406,3.023,11.517-.634,4.115-1.646,8.121.614,10.9l9.357-11.152,2.3,1.927-11.9,14.186c-4.788-4.748-4.44-8.895-3.77-13.552.818-5.579,1.039-8.579-1.964-11.1a5.166,5.166,0,0,0-7.444.907c-2.545,3.033-.837,6.659,1.845,8.752Z" style="fill: #181716"/>
    <path d="M1020.479,1089.044c5.707-6.8,12.316-1.985,17.125,2.051,4.78,4.01,10.67,9.683,4.963,16.484s-12.317,1.986-17.1-2.024C1020.661,1101.52,1014.771,1095.846,1020.479,1089.044Zm19.791,16.607c3.727-4.442-1.762-9.1-5.01-11.825-3.217-2.7-8.756-7.3-12.484-2.853s1.76,9.1,4.977,11.8C1031,1105.5,1036.542,1110.094,1040.27,1105.651Z" style="fill: #181716"/>
    <path d="M1058.5,1087.845l-2.186,2.6-15.563-13.058-4.731,5.636-2.083-1.748c2.494-2.971,3.958-6.336,1.169-9.669l1.672-1.991Z" style="fill: #181716"/>
    <path d="M1056.84,1064.624c.365-.372.674-.74.981-1.107,1.852-2.206,2.277-5.139-.083-7.119-2.266-1.9-4.88-1.276-6.731.93-2.391,2.85-1.244,5.9,1.273,8.064l-2.185,2.6c-4.007-3.623-5.036-8.246-1.386-12.6,3.162-3.768,7.359-5.1,11.373-1.733a6.5,6.5,0,0,1,1.8,6.628l.061.052c2.793-2.147,5.955-1.685,8.56.5,4.35,3.65,3.764,8.953.345,13.027-3.7,4.412-8.749,5.138-13.145,1.292l2.186-2.6c2.895,2.272,6.168,2.356,8.661-.617,2.134-2.542,2.4-6.029-.239-8.24-2.726-2.287-5.888-1.443-8.047,1.131a16.644,16.644,0,0,0-1.22,1.64Z" style="fill: #181716"/>
  </g>
  <g>
    <path d="M1130.342,1119.72c-4.591-3.488-5.685-8.843-1.828-13.439,3.187-3.8,7.913-4.95,11.957-1.556,3.83,3.213,3.6,7.407,3.022,11.516-.633,4.115-1.645,8.121.614,10.9l9.358-11.152,2.3,1.928-11.9,14.184c-4.788-4.747-4.44-8.894-3.769-13.551.817-5.579,1.038-8.579-1.964-11.1a5.165,5.165,0,0,0-7.443.906c-2.546,3.033-.838,6.659,1.843,8.752Z" style="fill: #181716"/>
    <path d="M1142.964,1089.062c5.707-6.8,12.316-1.987,17.126,2.049,4.779,4.011,10.67,9.684,4.963,16.486s-12.318,1.985-17.1-2.026C1143.146,1101.536,1137.257,1095.862,1142.964,1089.062Zm19.791,16.607c3.727-4.442-1.762-9.1-5.009-11.826-3.217-2.7-8.757-7.3-12.484-2.853s1.76,9.1,4.977,11.8C1153.486,1105.514,1159.027,1110.111,1162.755,1105.669Z" style="fill: #181716"/>
    <path d="M1180.986,1087.861l-2.185,2.6-15.564-13.059-4.73,5.637-2.084-1.748c2.494-2.972,3.96-6.336,1.171-9.669l1.671-1.991Z" style="fill: #181716"/>
    <path d="M1189.518,1062.7l2.467-2.941,2.3,1.928-2.468,2.941,5.086,4.268-2.056,2.451-5.086-4.268-8,9.528-2.512-2.108-5.82-21.747,1.748-2.083Zm-2.057,2.451-10.631-8.92-.052.061,4.564,16.15Z" style="fill: #181716"/>
  </g>
  <g>
    <path d="M1252.833,1119.735c-4.592-3.486-5.685-8.841-1.828-13.437,3.187-3.8,7.913-4.95,11.957-1.557,3.83,3.214,3.6,7.406,3.022,11.517-.632,4.115-1.644,8.121.615,10.9l9.357-11.152,2.3,1.928-11.9,14.184c-4.787-4.747-4.44-8.893-3.768-13.551.817-5.579,1.036-8.579-1.966-11.1a5.164,5.164,0,0,0-7.443.906c-2.545,3.033-.837,6.658,1.844,8.752Z" style="fill: #181716"/>
    <path d="M1265.454,1089.077c5.707-6.8,12.317-1.985,17.127,2.05,4.78,4.012,10.669,9.685,4.962,16.485s-12.315,1.987-17.1-2.024C1265.638,1101.553,1259.747,1095.879,1265.454,1089.077Zm19.792,16.608c3.728-4.443-1.762-9.1-5.009-11.826-3.216-2.7-8.758-7.3-12.485-2.853s1.762,9.1,4.978,11.8C1275.978,1105.53,1281.519,1110.127,1285.246,1105.685Z" style="fill: #181716"/>
    <path d="M1303.477,1087.877l-2.185,2.6-15.563-13.058L1281,1083.06l-2.083-1.748c2.493-2.972,3.959-6.336,1.169-9.669l1.671-1.993Z" style="fill: #181716"/>
    <path d="M1301.647,1051.358l-7.352,8.762,5.273,6.409.113-.009a7.168,7.168,0,0,1,1.83-5.356c3.239-3.86,8.368-4.934,13.331-.769,3.678,3.084,5.1,8.61.855,13.665-3.162,3.768-8.029,4.9-12.028,1.706l2.185-2.605c2.366,1.724,5.567,1.33,7.751-1.274,2.083-2.482,2.172-6.009-1.291-8.914a6.141,6.141,0,0,0-9.045.762,6.809,6.809,0,0,0-1.341,5.767l-2,2.134-9.577-11.483,9-10.722Z" style="fill: #181716"/>
  </g>
  <g>
    <path d="M1375.31,1119.745c-4.591-3.487-5.685-8.842-1.829-13.437,3.188-3.8,7.914-4.951,11.958-1.557,3.83,3.213,3.6,7.406,3.023,11.516-.634,4.115-1.646,8.121.613,10.9l9.358-11.151,2.3,1.927-11.9,14.185c-4.786-4.748-4.439-8.894-3.767-13.552.817-5.578,1.036-8.579-1.966-11.1a5.165,5.165,0,0,0-7.443.907c-2.545,3.033-.838,6.659,1.843,8.752Z" style="fill: #181716"/>
    <path d="M1387.931,1089.087c5.707-6.8,12.318-1.985,17.128,2.05,4.779,4.01,10.668,9.683,4.961,16.484s-12.316,1.986-17.1-2.023C1388.115,1101.562,1382.224,1095.889,1387.931,1089.087Zm19.792,16.606c3.727-4.441-1.761-9.1-5.009-11.825-3.217-2.7-8.757-7.295-12.485-2.852s1.761,9.1,4.978,11.8C1398.455,1105.539,1404,1110.137,1407.723,1105.693Z" style="fill: #181716"/>
    <path d="M1425.953,1087.887l-2.184,2.6-15.564-13.059-4.73,5.637-2.083-1.749c2.493-2.971,3.959-6.336,1.169-9.669l1.67-1.991Z" style="fill: #181716"/>
    <path d="M1425.564,1055.5a4.542,4.542,0,0,0-6.306.921c-3.728,4.442.582,9.26,3.818,12.184l.113-.009a7.692,7.692,0,0,1,1.7-7.814c3.5-4.167,8.613-4.1,12.626-.735,3.156,2.648,5.8,7.894,1.2,13.379-5.4,6.433-12.154,2.539-16.72-1.291-5.973-5.013-10.125-11.576-4.932-17.765,3.007-3.585,6.907-4.124,10.687-1.474Zm2.335,16.316c2.7,2.263,6.23,2.409,8.621-.441,2.365-2.818,1.438-6.258-1.135-8.417-2.7-2.263-6.114-2.729-8.608.242C1424.335,1066.111,1425.173,1069.529,1427.9,1071.816Z" style="fill: #181716"/>
  </g>
  <g>
    <path d="M1497.8,1119.762c-4.593-3.488-5.685-8.842-1.828-13.438,3.187-3.8,7.913-4.95,11.957-1.556,3.829,3.212,3.6,7.406,3.022,11.516-.634,4.114-1.645,8.121.614,10.9l9.357-11.152,2.3,1.928-11.9,14.184c-4.787-4.747-4.44-8.893-3.768-13.551.817-5.578,1.037-8.579-1.965-11.1a5.166,5.166,0,0,0-7.443.907c-2.545,3.032-.838,6.658,1.843,8.751Z" style="fill: #181716"/>
    <path d="M1510.417,1089.1c5.707-6.8,12.317-1.986,17.127,2.049,4.779,4.011,10.669,9.684,4.962,16.486s-12.317,1.986-17.1-2.025C1510.6,1101.578,1504.71,1095.905,1510.417,1089.1Zm19.791,16.607c3.728-4.442-1.761-9.1-5.009-11.826-3.217-2.7-8.757-7.3-12.484-2.853s1.761,9.1,4.977,11.8C1520.94,1105.557,1526.48,1110.153,1530.208,1105.711Z" style="fill: #181716"/>
    <path d="M1548.439,1087.9l-2.184,2.6-15.564-13.059-4.73,5.637-2.084-1.748c2.493-2.973,3.959-6.337,1.17-9.669l1.671-1.991Z" style="fill: #181716"/>
    <path d="M1547.55,1050.138c.675,8.032,5.658,18.269,12.126,24.375l-2.443,2.911c-6.941-6.66-10.694-15.814-11.7-24.441l-9.563,11.4-2.451-2.057,11.8-14.062Z" style="fill: #181716"/>
  </g>
  <g>
    <path d="M1620.281,1119.778c-4.592-3.487-5.684-8.841-1.828-13.437,3.188-3.8,7.913-4.95,11.957-1.557,3.83,3.214,3.6,7.407,3.023,11.517-.633,4.114-1.646,8.121.613,10.9l9.357-11.152,2.3,1.927-11.9,14.186c-4.787-4.748-4.441-8.895-3.769-13.552.818-5.579,1.038-8.579-1.964-11.1a5.166,5.166,0,0,0-7.444.907c-2.545,3.033-.838,6.658,1.844,8.752Z" style="fill: #181716"/>
    <path d="M1632.9,1089.121c5.707-6.8,12.318-1.986,17.127,2.05,4.78,4.01,10.669,9.683,4.962,16.484s-12.316,1.987-17.1-2.024C1633.086,1101.6,1627.2,1095.922,1632.9,1089.121Zm19.791,16.607c3.728-4.443-1.76-9.1-5.007-11.826-3.217-2.7-8.758-7.3-12.486-2.853s1.762,9.1,4.979,11.8C1643.426,1105.573,1648.966,1110.17,1652.693,1105.728Z" style="fill: #181716"/>
    <path d="M1670.925,1087.921l-2.185,2.6-15.563-13.058-4.731,5.637-2.084-1.749c2.493-2.971,3.96-6.336,1.17-9.668l1.671-1.992Z" style="fill: #181716"/>
    <path d="M1661.365,1055.2c3.985-4.749,8.316-4.247,11.073-1.933a6.566,6.566,0,0,1,1.984,6.781c3.012-1.91,5.966-1.572,8.662.69,4.2,3.522,3.943,8.739.575,12.752-3.5,4.166-8.37,5.559-12.812,1.831a7.157,7.157,0,0,1-2.236-8.349,6.409,6.409,0,0,1-7.048-.746C1657.979,1063.218,1658.562,1058.54,1661.365,1055.2Zm9.335,7.415a4.354,4.354,0,0,0-.484-6.514c-2.176-1.826-4.625-1.27-6.4.843-1.748,2.084-2.023,4.776.153,6.6C1666.358,1065.551,1668.9,1064.761,1670.7,1062.615Zm10.661,8.947a5.477,5.477,0,0,0-.5-7.99,5.584,5.584,0,0,0-7.888,1c-2.16,2.574-2.2,5.985.31,8.092C1675.887,1074.852,1679.1,1074.258,1681.361,1071.562Z" style="fill: #181716"/>
  </g>
  <g style="clip-path: url(#clip-path)">
    <g>
      <path d="M1865.138,1119.572c-4.592-3.486-5.686-8.842-1.829-13.436,3.187-3.8,7.913-4.951,11.958-1.558,3.829,3.214,3.6,7.407,3.022,11.517-.634,4.115-1.645,8.121.613,10.9l9.358-11.151,2.3,1.927-11.9,14.185c-4.786-4.748-4.439-8.894-3.767-13.552.817-5.579,1.037-8.579-1.965-11.1a5.165,5.165,0,0,0-7.443.907c-2.545,3.033-.838,6.658,1.843,8.752Z" style="fill: #181716"/>
      <path d="M1877.758,1088.915c5.707-6.8,12.318-1.986,17.128,2.05,4.779,4.01,10.669,9.683,4.962,16.484s-12.317,1.987-17.1-2.024C1877.942,1101.39,1872.051,1095.716,1877.758,1088.915Zm19.792,16.606c3.727-4.442-1.761-9.1-5.009-11.825-3.217-2.7-8.757-7.3-12.484-2.853s1.76,9.1,4.977,11.8C1888.282,1105.367,1893.822,1109.964,1897.55,1105.521Z" style="fill: #181716"/>
      <path d="M1893.729,1085.5c-4.592-3.487-5.686-8.842-1.83-13.437,3.188-3.8,7.913-4.951,11.958-1.557,3.83,3.214,3.6,7.406,3.023,11.516-.634,4.115-1.646,8.122.614,10.9l9.358-11.153,2.3,1.928-11.9,14.186c-4.787-4.748-4.439-8.895-3.768-13.553.817-5.578,1.037-8.578-1.965-11.1a5.167,5.167,0,0,0-7.444.908c-2.545,3.032-.837,6.658,1.845,8.751Z" style="fill: #181716"/>
      <path d="M1906.35,1054.841c5.707-6.8,12.317-1.986,17.127,2.05,4.779,4.01,10.669,9.683,4.962,16.485s-12.317,1.986-17.1-2.024C1906.533,1067.316,1900.643,1061.643,1906.35,1054.841Zm19.792,16.607c3.727-4.442-1.762-9.1-5.01-11.825-3.217-2.7-8.756-7.3-12.484-2.853s1.76,9.1,4.977,11.8C1916.873,1071.294,1922.414,1075.891,1926.142,1071.448Z" style="fill: #181716"/>
    </g>
  </g>
  <g>
    <path d="M1742.659,1119.577c-4.592-3.487-5.685-8.842-1.829-13.436,3.188-3.8,7.913-4.952,11.958-1.558,3.829,3.214,3.6,7.406,3.023,11.516-.634,4.116-1.646,8.122.614,10.9l9.357-11.152,2.3,1.927-11.9,14.186c-4.787-4.748-4.44-8.895-3.769-13.552.818-5.579,1.037-8.579-1.965-11.1a5.166,5.166,0,0,0-7.443.908c-2.545,3.033-.837,6.658,1.845,8.752Z" style="fill: #181716"/>
    <path d="M1755.28,1088.92c5.707-6.8,12.318-1.986,17.127,2.05,4.78,4.009,10.67,9.682,4.963,16.484s-12.317,1.986-17.1-2.024C1755.464,1101.4,1749.573,1095.721,1755.28,1088.92Zm19.792,16.606c3.728-4.442-1.761-9.1-5.01-11.825-3.216-2.7-8.755-7.3-12.483-2.853s1.76,9.1,4.977,11.8C1765.8,1105.372,1771.345,1109.969,1775.072,1105.526Z" style="fill: #181716"/>
    <path d="M1793.3,1087.72l-2.186,2.6-15.562-13.059-4.731,5.637-2.084-1.749c2.494-2.971,3.959-6.336,1.169-9.669l1.671-1.991Z" style="fill: #181716"/>
    <path d="M1796.652,1073.088c2.269,1.591,4.9.877,6.651-1.206,2.674-3.187,1.2-7.088-4.282-11.946l-.113.01a7.425,7.425,0,0,1-1.213,7.543c-3.7,4.412-8.729,4.37-13.019.771-4.2-3.522-4.61-8.88-1.088-13.077,3.393-4.044,8.423-5.62,16.633,1.269,7.507,6.3,9.8,12.088,5.38,17.358-3.059,3.645-7.114,4.681-11.134,1.882Zm-10.868-15.855c-2.6,3.1-1.092,6.341,1.573,8.579a5.81,5.81,0,0,0,8.195-.434c2.288-2.727,1.521-6.294-1.052-8.453C1791.834,1054.688,1788.227,1054.323,1785.784,1057.233Z" style="fill: #181716"/>
  </g>
  <rect x="676.672" y="1195.799" width="34.016" height="34.016" style="fill: #f09100"/>
  <g>
    <path d="M725.007,1201.255h5.2l9,24,9.038-24h5.2v28.556h-3.6v-23.756h-.08l-8.919,23.756h-3.239l-8.918-23.756h-.081v23.756h-3.6Z" style="fill: #181716"/>
    <path d="M776.844,1223.252c-.92,4.559-4.2,7.038-8.839,7.038-6.6,0-9.718-4.559-9.918-10.878,0-6.2,4.079-10.758,9.718-10.758,7.319,0,9.558,6.839,9.359,11.838H761.686c-.12,3.6,1.92,6.8,6.439,6.8,2.8,0,4.759-1.359,5.359-4.039Zm-3.28-5.76a5.95,5.95,0,0,0-5.959-5.839c-3.559,0-5.679,2.68-5.919,5.839Zm-5.159-16.917h4.359l-5.239,5.72h-2.559Z" style="fill: #181716"/>
    <path d="M785.405,1209.134h4.119v3h-4.119v12.838c0,1.559.44,1.84,2.56,1.84h1.559v3h-2.6c-3.519,0-4.919-.72-4.919-4.52v-13.157h-3.52v-3h3.52v-6.2h3.4Z" style="fill: #181716"/>
    <path d="M793.166,1209.134h3.2v4.359h.08c1.64-3.319,3.919-4.959,7.6-4.839v3.6c-5.479,0-7.479,3.119-7.479,8.358v9.2h-3.4Z" style="fill: #181716"/>
    <path d="M814.8,1208.654c6.559,0,10.038,4.759,10.038,10.838,0,6.039-3.479,10.8-10.038,10.8s-10.038-4.759-10.038-10.8C804.766,1213.413,808.245,1208.654,814.8,1208.654Zm0,18.637c3.559,0,6.439-2.8,6.439-7.8,0-5.039-2.88-7.839-6.439-7.839s-6.439,2.8-6.439,7.839C808.365,1224.491,811.244,1227.291,814.8,1227.291Z" style="fill: #181716"/>
    <path d="M828.965,1209.134h3.4v2.8h.08c1.12-2.28,3.76-3.28,6.6-3.28,6.359,0,9.519,5.039,9.519,10.878s-3.12,10.758-9.439,10.758c-2.12,0-5.159-.8-6.679-3.239h-.08v10.678h-3.4Zm9.6,2.519c-4.559,0-6.319,3.92-6.319,7.8,0,4.079,1.84,7.839,6.519,7.839,4.639,0,6.2-3.959,6.2-8C844.962,1215.413,842.962,1211.653,838.563,1211.653Z" style="fill: #181716"/>
    <path d="M861.483,1208.654c6.559,0,10.038,4.759,10.038,10.838,0,6.039-3.479,10.8-10.038,10.8s-10.038-4.759-10.038-10.8C851.445,1213.413,854.924,1208.654,861.483,1208.654Zm0,18.637c3.559,0,6.439-2.8,6.439-7.8,0-5.039-2.88-7.839-6.439-7.839s-6.439,2.8-6.439,7.839C855.044,1224.491,857.923,1227.291,861.483,1227.291Z" style="fill: #181716"/>
    <path d="M875.724,1201.255h3.4v28.556h-3.4Z" style="fill: #181716"/>
    <path d="M902.041,1223.252c-.92,4.559-4.2,7.038-8.839,7.038-6.6,0-9.719-4.559-9.918-10.878,0-6.2,4.079-10.758,9.718-10.758,7.319,0,9.558,6.839,9.358,11.838H886.883c-.12,3.6,1.92,6.8,6.439,6.8,2.8,0,4.759-1.359,5.359-4.039Zm-3.28-5.76a5.95,5.95,0,0,0-5.959-5.839c-3.559,0-5.679,2.68-5.919,5.839Z" style="fill: #181716"/>
  </g>
  <rect x="1039.384" y="1195.799" width="34.016" height="34.016" style="fill: #fbd51d"/>
  <g>
    <path d="M1087.642,1201.255h9.8c8.8,0,13.718,4.4,13.718,13.6,0,9.557-4.2,14.957-13.718,14.957h-9.8Zm3.8,25.356h6.319c2.6,0,9.6-.719,9.6-11.238,0-6.8-2.519-10.918-9.518-10.918h-6.4Z" style="fill: #181716"/>
    <path d="M1115.8,1201.255h13.438c5.359,0,8.678,2.92,8.678,7.479,0,3.44-1.52,6.279-4.959,7.239v.08c3.319.639,4,3.08,4.279,5.879.241,2.8.08,5.919,1.68,7.879h-4.239c-1.08-1.161-.48-4.24-1.04-7.04-.4-2.8-1.079-5.159-4.759-5.159H1119.6v12.2h-3.8Zm11.719,13.158c3.558,0,6.6-.92,6.6-5.079,0-2.8-1.519-4.879-5.079-4.879H1119.6v9.958Z" style="fill: #181716"/>
    <path d="M1155.279,1200.575c9.079,0,13.678,7.2,13.678,14.958s-4.6,14.957-13.678,14.957-13.677-7.2-13.677-14.957S1146.2,1200.575,1155.279,1200.575Zm0,26.716c6.959,0,9.879-6,9.879-11.758s-2.92-11.758-9.879-11.758-9.878,6-9.878,11.758S1148.32,1227.291,1155.279,1227.291Z" style="fill: #181716"/>
    <path d="M1173.681,1201.255h5.2l9,24,9.038-24h5.2v28.556h-3.6v-23.756h-.08l-8.918,23.756h-3.241l-8.918-23.756h-.08v23.756h-3.6Z" style="fill: #181716"/>
  </g>
  <polygon points="82.459 1010.945 204.539 1010.889 326.619 1010.561 448.691 1009.249 570.771 1002.017 692.851 977.585 814.931 897.729 937.011 791.537 1059.091 752.217 1181.163 687.617 1303.243 613.681 1425.323 564.281 1547.403 512.921 1669.483 441.217 1791.563 368.049 1913.643 295.329 1913.643 1011.545 1791.563 1011.545 1669.483 1011.545 1547.403 1011.545 1425.323 1011.545 1303.243 1011.545 1181.163 1011.545 1059.091 1011.545 937.011 1011.545 814.931 1011.545 692.851 1011.545 570.771 1011.545 448.691 1011.545 326.619 1011.545 204.539 1011.545 82.459 1011.545 82.459 1010.945" style="fill: #f09100"/>
  <polygon points="82.459 1010.309 204.539 1010.053 326.619 1009.389 448.691 1007.645 570.771 999.949 692.851 971.493 814.931 883.701 937.011 768.989 1059.091 727.053 1181.163 661.429 1303.243 586.805 1425.323 537.181 1547.403 486.421 1669.483 414.949 1791.563 341.869 1913.643 267.701 1913.643 295.333 1791.563 368.045 1669.483 441.221 1547.403 512.917 1425.323 564.285 1303.243 613.685 1181.163 687.613 1059.091 752.213 937.011 791.541 814.931 897.725 692.851 977.581 570.771 1002.013 448.691 1009.245 326.619 1010.565 204.539 1010.893 82.459 1010.941 82.459 1010.309" style="fill: #fbd51d"/>
  <line x1="82.16" y1="127.735" x2="82.16" y2="1025.343" style="fill: none;stroke: #181716;stroke-linejoin: round;stroke-width: 2.40000009536743px"/>
  <line x1="69.991" y1="1012.184" x2="1913.639" y2="1012.184" style="fill: none;stroke: #181716;stroke-linejoin: round;stroke-width: 2.40000009536743px"/>
</svg>
